<svg width="32" height="32" viewBox="0 0 32 32" fill="none" xmlns="http://www.w3.org/2000/svg">
<g clip-path="url(#clip0_12138_439)">
<path fill-rule="evenodd" clip-rule="evenodd" d="M1 12C0.85037 12.0001 0.702657 12.0337 0.567753 12.0984C0.432849 12.1632 0.314192 12.2574 0.22053 12.3741C0.126868 12.4907 0.0605872 12.627 0.0265741 12.7727C-0.00743894 12.9184 -0.00831744 13.0699 0.0240034 13.216L3.328 28.084C3.57463 29.1945 4.19255 30.1877 5.07976 30.8997C5.96698 31.6116 7.07045 31.9998 8.208 32H19.792C20.9296 31.9998 22.033 31.6116 22.9202 30.8997C23.8075 30.1877 24.4254 29.1945 24.672 28.084L24.934 26.904C26.4638 27.1901 28.045 26.8706 29.3437 26.0129C30.6424 25.1552 31.557 23.8264 31.8944 22.307C32.2318 20.7876 31.9656 19.1966 31.1521 17.8698C30.3385 16.543 29.0412 15.5843 27.534 15.196L27.976 13.216C28.0083 13.0699 28.0074 12.9184 27.9734 12.7727C27.9394 12.627 27.8731 12.4907 27.7795 12.3741C27.6858 12.2574 27.5672 12.1632 27.4323 12.0984C27.2974 12.0337 27.1496 12.0001 27 12H1ZM26 25C25.7883 25.0001 25.577 24.9834 25.368 24.95L27.102 17.154C28.027 17.4219 28.8244 18.0144 29.3478 18.8227C29.8713 19.631 30.0857 20.601 29.9518 21.5546C29.8178 22.5083 29.3445 23.3817 28.6186 24.0145C27.8927 24.6474 26.963 24.9973 26 25ZM5.28 27.65L2.246 14H25.754L22.72 27.65C22.5721 28.3164 22.2014 28.9124 21.6691 29.3396C21.1367 29.7669 20.4746 29.9998 19.792 30H8.208C7.52542 29.9998 6.86329 29.7669 6.33095 29.3396C5.79862 28.9124 5.4279 28.3164 5.28 27.65Z" fill="#101828"/>
<path d="M8.8 1.60006L8.794 1.60806L8.766 1.64606C8.62048 1.8463 8.48433 2.05319 8.358 2.26606C8.25068 2.4367 8.15641 2.61521 8.076 2.80006C8.024 2.92006 8.008 2.98406 8.002 3.00606V3.01406C8.02506 3.19086 8.08724 3.3603 8.184 3.51006C8.334 3.77606 8.54 4.05406 8.8 4.40006L8.82 4.42406C9.056 4.74006 9.34 5.11806 9.56 5.51006C9.784 5.91006 10 6.42006 10 7.00006C10 7.37606 9.87 7.73606 9.762 7.98806C9.6464 8.25621 9.51137 8.51557 9.358 8.76406C9.2011 9.02632 9.03225 9.28126 8.852 9.52806L8.816 9.57806L8.806 9.59406L8.802 9.59806C8.64314 9.8105 8.40639 9.95113 8.14384 9.98901C7.88129 10.0269 7.61444 9.95892 7.402 9.80006C7.18956 9.64119 7.04893 9.40445 7.01105 9.14189C6.97317 8.87934 7.04114 8.6125 7.2 8.40006L7.206 8.39206L7.234 8.35406C7.37952 8.15382 7.51567 7.94693 7.642 7.73406C7.74932 7.56342 7.84359 7.38491 7.924 7.20006C7.976 7.08006 7.992 7.01606 7.998 6.99406C7.97671 6.81465 7.91517 6.64237 7.818 6.49006C7.63235 6.17977 7.42588 5.88242 7.2 5.60006L7.18 5.57606C6.90979 5.23068 6.66259 4.86789 6.44 4.49006C6.16759 4.03952 6.01604 3.52631 6 3.00006C6 2.62406 6.13 2.26406 6.238 2.01206C6.356 1.73606 6.506 1.46406 6.642 1.23606C6.80088 0.975043 6.96967 0.720191 7.148 0.47206L7.198 0.40206C7.35686 0.189621 7.59361 0.0489924 7.85616 0.0111101C8.11872 -0.0267722 8.38556 0.0411949 8.598 0.20006C8.81044 0.358924 8.95107 0.595673 8.98895 0.858224C9.02683 1.12077 8.95886 1.38762 8.8 1.60006ZM14.8 1.60006L14.794 1.60806L14.766 1.64606C14.6205 1.8463 14.4843 2.05319 14.358 2.26606C14.2507 2.4367 14.1564 2.61521 14.076 2.80006C14.024 2.92006 14.008 2.98406 14.002 3.00606V3.01406C14.0251 3.19086 14.0872 3.3603 14.184 3.51006C14.334 3.77606 14.54 4.05406 14.8 4.40006L14.82 4.42406C15.056 4.74006 15.34 5.11806 15.56 5.51006C15.784 5.91006 16 6.42006 16 7.00006C16 7.37606 15.87 7.73606 15.762 7.98806C15.6464 8.25621 15.5114 8.51557 15.358 8.76406C15.2011 9.02632 15.0323 9.28126 14.852 9.52806L14.816 9.57806L14.806 9.59406L14.802 9.59806C14.6431 9.8105 14.4064 9.95113 14.1438 9.98901C13.8813 10.0269 13.6144 9.95892 13.402 9.80006C13.1896 9.64119 13.0489 9.40445 13.0111 9.14189C12.9732 8.87934 13.0411 8.6125 13.2 8.40006L13.206 8.39206L13.234 8.35406C13.3795 8.15382 13.5157 7.94693 13.642 7.73406C13.7493 7.56342 13.8436 7.38491 13.924 7.20006C13.976 7.08006 13.992 7.01606 13.998 6.99406C13.9767 6.81465 13.9152 6.64237 13.818 6.49006C13.6323 6.17977 13.4259 5.88242 13.2 5.60006L13.18 5.57606C12.9098 5.23068 12.6626 4.86789 12.44 4.49006C12.1676 4.03952 12.016 3.52631 12 3.00006C12 2.62406 12.13 2.26406 12.238 2.01206C12.356 1.73606 12.506 1.46406 12.642 1.23606C12.8009 0.975043 12.9697 0.720191 13.148 0.47206L13.198 0.40206C13.3569 0.189621 13.5936 0.0489924 13.8562 0.0111101C14.1187 -0.0267723 14.3856 0.0411949 14.598 0.20006C14.8104 0.358924 14.9511 0.595673 14.9889 0.858224C15.0268 1.12077 14.9589 1.38762 14.8 1.60006ZM20.8 1.60006L20.794 1.60806L20.766 1.64606C20.6205 1.8463 20.4843 2.05319 20.358 2.26606C20.2507 2.4367 20.1564 2.61521 20.076 2.80006C20.024 2.92006 20.008 2.98406 20.002 3.00606V3.01406C20.0251 3.19086 20.0872 3.3603 20.184 3.51006C20.334 3.77606 20.54 4.05406 20.8 4.40006L20.82 4.42406C21.056 4.74006 21.34 5.11806 21.56 5.51006C21.784 5.91006 22 6.42006 22 7.00006C22 7.37606 21.87 7.73606 21.762 7.98806C21.6464 8.25621 21.5114 8.51557 21.358 8.76406C21.2017 9.02628 21.0336 9.28122 20.854 9.52806L20.816 9.57806L20.806 9.59406L20.802 9.59806C20.6431 9.8105 20.4064 9.95113 20.1438 9.98901C19.8813 10.0269 19.6144 9.95892 19.402 9.80006C19.1896 9.64119 19.0489 9.40445 19.0111 9.14189C18.9732 8.87934 19.0411 8.6125 19.2 8.40006L19.206 8.39206L19.234 8.35406C19.3795 8.15382 19.5157 7.94693 19.642 7.73406C19.7493 7.56342 19.8436 7.38491 19.924 7.20006C19.976 7.08006 19.992 7.01606 19.998 6.99406C19.9767 6.81465 19.9152 6.64237 19.818 6.49006C19.6324 6.17977 19.4259 5.88242 19.2 5.60006L19.18 5.57606C18.9098 5.23068 18.6626 4.86789 18.44 4.49006C18.1676 4.03952 18.016 3.52631 18 3.00006C18 2.62406 18.13 2.26406 18.238 2.01206C18.356 1.73606 18.506 1.46406 18.642 1.23606C18.8009 0.975043 18.9697 0.720191 19.148 0.47206L19.198 0.40206C19.3569 0.189621 19.5936 0.0489924 19.8562 0.0111101C20.1187 -0.0267723 20.3856 0.0411949 20.598 0.20006C20.8104 0.358924 20.9511 0.595673 20.9889 0.858224C21.0268 1.12077 20.9589 1.38762 20.8 1.60006Z" fill="#101828"/>
</g>
<defs>
<clipPath id="clip0_12138_439">
<rect width="32" height="32" fill="white"/>
</clipPath>
</defs>
</svg>
